<svg id="Layer_1" data-name="Layer 1" xmlns="http://www.w3.org/2000/svg" width="770" height="770" viewBox="0 0 770 770">
  <title>favicon</title>
  <g>
    <path d="M377.64,30.13V281.61a26,26,0,0,1-26.05,26H248.86a26,26,0,0,0-26,26.05v99.69a26,26,0,0,1-26,26.05H94.05a26,26,0,0,1-26-26.05V333.7a26,26,0,0,1,26.05-26.05H196.77a26,26,0,0,0,26-26V30.13a26,26,0,0,1,26-26H351.59A26,26,0,0,1,377.64,30.13Z"/>
    <path d="M687.27,485.48V737a26,26,0,0,1-26,26H558.5a26,26,0,0,1-26-26V485.48a26,26,0,0,0-26-26H403.68a26,26,0,0,1-26-26.05V333.7a26,26,0,0,1,26-26.05H506.41a26,26,0,0,1,26,26.05v99.69a26,26,0,0,0,26,26.05H661.23A26,26,0,0,1,687.27,485.48Z"/>
  </g>
</svg>
